<?xml version="1.0" encoding="UTF-8" standalone="no"?>
<svg
   width="128px"
   height="128px"
   viewBox="0 0 128 128"
   version="1.1"
   id="svg18"
   sodipodi:docname="hamonikr-white.svg"
   inkscape:version="1.1.2 (0a00cf5339, 2022-02-04)"
   xmlns:inkscape="http://www.inkscape.org/namespaces/inkscape"
   xmlns:sodipodi="http://sodipodi.sourceforge.net/DTD/sodipodi-0.dtd"
   xmlns="http://www.w3.org/2000/svg"
   xmlns:svg="http://www.w3.org/2000/svg">
  <sodipodi:namedview
     id="namedview20"
     pagecolor="#ffffff"
     bordercolor="#666666"
     borderopacity="1.0"
     inkscape:pageshadow="2"
     inkscape:pageopacity="0.0"
     inkscape:pagecheckerboard="0"
     showgrid="false"
     inkscape:zoom="5.5234375"
     inkscape:cx="63.909477"
     inkscape:cy="63.909477"
     inkscape:window-width="3440"
     inkscape:window-height="1379"
     inkscape:window-x="0"
     inkscape:window-y="33"
     inkscape:window-maximized="1"
     inkscape:current-layer="svg18" />
  <defs
     id="defs7">
    <linearGradient
       id="linear0"
       gradientUnits="userSpaceOnUse"
       x1="216.4059"
       y1="78.6112"
       x2="526.9974"
       y2="670.5933"
       gradientTransform="scale(0.173677)">
      <stop
         offset="0"
         style="stop-color:rgb(25.490196%,74.509804%,83.529412%);stop-opacity:1;"
         id="stop2" />
      <stop
         offset="0.9954"
         style="stop-color:rgb(51.372549%,32.54902%,84.313725%);stop-opacity:1;"
         id="stop4" />
    </linearGradient>
  </defs>
  <path
     style="fill:#eeeeee;fill-opacity:1;fill-rule:nonzero;stroke:none"
     d="m 23.25,58.28125 c -2.855469,3.636719 -2.613281,8.917969 0.71875,12.25 3.613281,3.613281 9.46875,3.613281 13.0625,0 L 51.355469,56.199219 C 42.6875,50.71875 31.230469,51.40625 23.25,58.28125 Z m 0,0"
     id="path11" />
  <path
     style="fill:#eeeeee;fill-opacity:1;fill-rule:nonzero;stroke:none"
     d="m 104.03125,57.46875 c -3.61328,-3.613281 -9.46875,-3.613281 -13.0625,0 L 76.386719,72.0625 c 8.75,5.542969 20.332031,4.792969 28.312501,-2.238281 2.92578,-3.65625 2.69531,-8.980469 -0.66797,-12.355469 z m 0,0"
     id="path13" />
  <path
     style="fill:#ffffff;fill-opacity:1;fill-rule:nonzero;stroke:none"
     d="M 74.625,73.792969 C 73.167969,72.875 71.800781,71.800781 70.53125,70.53125 c -9.261719,-9.261719 -9.261719,-24.25 0,-33.5 3.613281,-3.613281 3.613281,-9.46875 0,-13.0625 -3.613281,-3.613281 -9.46875,-3.613281 -13.0625,0 l -33.5,33.5 c 7.988281,-7.988281 20.25,-9.0625 29.40625,-3.261719 1.457031,0.917969 2.824219,1.992188 4.09375,3.261719 9.261719,9.261719 9.261719,24.25 0,33.5 -3.613281,3.613281 -3.613281,9.46875 0,13.0625 3.613281,3.61328 9.46875,3.61328 13.0625,0 L 104.01953,70.550781 C 96.042969,78.519531 83.78125,79.59375 74.625,73.792969 Z m 0,0"
     id="path15" />
</svg>
