
<svg xmlns="http://www.w3.org/2000/svg" xmlns:xlink="http://www.w3.org/1999/xlink" width="128px" height="128px" viewBox="0 0 128 128" version="1.1">
<defs>
<linearGradient id="linear0" gradientUnits="userSpaceOnUse" x1="216.4059" y1="78.6112" x2="526.9974" y2="670.5933" gradientTransform="matrix(0.173677,0,0,0.173677,0,0)">
<stop offset="0" style="stop-color:rgb(25.490196%,74.509804%,83.529412%);stop-opacity:1;"/>
<stop offset="0.9954" style="stop-color:rgb(51.372549%,32.54902%,84.313725%);stop-opacity:1;"/>
</linearGradient>
</defs>
<g id="surface1">
<path style=" stroke:none;fill-rule:nonzero;fill:url(#linear0);" d="M 122.4375 50.59375 L 77.40625 5.5625 C 70.011719 -1.84375 57.988281 -1.84375 50.59375 5.5625 L 5.5625 50.59375 C -1.84375 57.988281 -1.84375 70.011719 5.5625 77.40625 L 50.59375 122.4375 C 57.988281 129.84375 70.011719 129.84375 77.40625 122.4375 L 122.4375 77.40625 C 129.855469 70.011719 129.855469 57.988281 122.4375 50.59375 Z M 122.4375 50.59375 "/>
<path style=" stroke:none;fill-rule:nonzero;fill:rgb(93.72549%,93.72549%,93.72549%);fill-opacity:1;" d="M 23.25 58.28125 C 20.394531 61.917969 20.636719 67.199219 23.96875 70.53125 C 27.582031 74.144531 33.4375 74.144531 37.03125 70.53125 L 51.355469 56.199219 C 42.6875 50.71875 31.230469 51.40625 23.25 58.28125 Z M 23.25 58.28125 "/>
<path style=" stroke:none;fill-rule:nonzero;fill:rgb(93.72549%,93.72549%,93.72549%);fill-opacity:1;" d="M 104.03125 57.46875 C 100.417969 53.855469 94.5625 53.855469 90.96875 57.46875 L 76.386719 72.0625 C 85.136719 77.605469 96.71875 76.855469 104.699219 69.824219 C 107.625 66.167969 107.394531 60.84375 104.03125 57.46875 Z M 104.03125 57.46875 "/>
<path style=" stroke:none;fill-rule:nonzero;fill:rgb(100%,100%,100%);fill-opacity:1;" d="M 74.625 73.792969 C 73.167969 72.875 71.800781 71.800781 70.53125 70.53125 C 61.269531 61.269531 61.269531 46.28125 70.53125 37.03125 C 74.144531 33.417969 74.144531 27.5625 70.53125 23.96875 C 66.917969 20.355469 61.0625 20.355469 57.46875 23.96875 L 23.96875 57.46875 C 31.957031 49.480469 44.21875 48.40625 53.375 54.207031 C 54.832031 55.125 56.199219 56.199219 57.46875 57.46875 C 66.730469 66.730469 66.730469 81.71875 57.46875 90.96875 C 53.855469 94.582031 53.855469 100.4375 57.46875 104.03125 C 61.082031 107.644531 66.9375 107.644531 70.53125 104.03125 L 104.019531 70.550781 C 96.042969 78.519531 83.78125 79.59375 74.625 73.792969 Z M 74.625 73.792969 "/>
</g>
</svg>
