
<svg xmlns="http://www.w3.org/2000/svg" xmlns:xlink="http://www.w3.org/1999/xlink" width="128px" height="128px" viewBox="0 0 128 128" version="1.1">
<defs>
<linearGradient id="linear0" gradientUnits="userSpaceOnUse" x1="21.91" y1="9.34" x2="44.22" y2="59.46" gradientTransform="matrix(2,0,0,2,0,0)">
<stop offset="0" style="stop-color:rgb(25.490196%,74.509804%,83.529412%);stop-opacity:1;"/>
<stop offset="1" style="stop-color:rgb(51.372549%,32.54902%,84.313725%);stop-opacity:1;"/>
</linearGradient>
</defs>
<g id="surface1">
<path style=" stroke:none;fill-rule:nonzero;fill:rgb(26.666667%,53.72549%,75.686275%);fill-opacity:1;" d="M 2.980469 55.441406 C -1.667969 61.179688 -0.980469 69.5625 4.542969 74.46875 C 10.0625 79.375 18.464844 79.070312 23.621094 73.78125 L 45.078125 52.320312 C 31.886719 43.996094 14.804688 45.261719 2.980469 55.441406 Z M 2.980469 55.441406 "/>
<path style=" stroke:none;fill-rule:nonzero;fill:rgb(39.215686%,27.45098%,75.686275%);fill-opacity:1;" d="M 124 54.21875 C 118.597656 48.824219 109.84375 48.824219 104.441406 54.21875 L 82.519531 76 C 95.832031 84.414062 113.097656 83.046875 124.921875 72.640625 C 129.34375 67.160156 128.949219 59.230469 124 54.21875 Z M 124 54.21875 "/>
<path style=" stroke:none;fill-rule:nonzero;fill:url(#linear0);" d="M 80 78.679688 C 77.789062 77.273438 75.734375 75.628906 73.878906 73.78125 C 60.035156 59.925781 60.035156 37.472656 73.878906 23.621094 C 79.296875 18.191406 79.289062 9.398438 73.859375 3.980469 C 68.429688 -1.4375 59.636719 -1.429688 54.21875 4 L 29.140625 29.140625 L 4 54.21875 C 17.851562 40.351562 40.320312 40.339844 54.191406 54.191406 C 68.058594 68.042969 68.070312 90.511719 54.21875 104.378906 C 48.800781 109.78125 48.789062 118.550781 54.191406 123.96875 C 59.589844 129.386719 68.363281 129.402344 73.78125 124 L 98.859375 98.859375 L 124 73.78125 C 112.277344 85.484375 94.011719 87.519531 80 78.679688 Z M 80 78.679688 "/>
</g>
</svg>
